<svg height="510" width="720" xmlns="http://www.w3.org/2000/svg">
<rect height="510" fill="#555" width="720"></rect>
<text fill="#7f7" font-family="Courier New" font-size="12" xml:space="preserve">
<tspan x="10" y="26">11 megabytes installed</tspan>
<tspan x="10" y="42"></tspan>
<tspan x="10" y="58">node_modules</tspan>
<tspan x="10" y="74">└─┬ xls-to-json@0.4.0 </tspan>
<tspan x="10" y="90">  ├── csv@0.3.7 </tspan>
<tspan x="10" y="106">  └─┬ xlsx@0.8.0 </tspan>
<tspan x="10" y="122">    ├─┬ adler-32@1.0.0 </tspan>
<tspan x="10" y="138">    │ ├─┬ concat-stream@1.6.0 </tspan>
<tspan x="10" y="154">    │ │ ├── inherits@2.0.3 </tspan>
<tspan x="10" y="170">    │ │ ├─┬ readable-stream@2.2.9 </tspan>
<tspan x="10" y="186">    │ │ │ ├── buffer-shims@1.0.0 </tspan>
<tspan x="10" y="202">    │ │ │ ├── core-util-is@1.0.2 </tspan>
<tspan x="10" y="218">    │ │ │ ├── isarray@1.0.0 </tspan>
<tspan x="10" y="234">    │ │ │ ├── process-nextick-args@1.0.7 </tspan>
<tspan x="10" y="250">    │ │ │ ├── string_decoder@1.0.0 </tspan>
<tspan x="10" y="266">    │ │ │ └── util-deprecate@1.0.2 </tspan>
<tspan x="10" y="282">    │ │ └── typedarray@0.0.6 </tspan>
<tspan x="10" y="298">    │ ├── exit-on-epipe@1.0.0 </tspan>
<tspan x="10" y="314">    │ └── printj@1.0.0 </tspan>
<tspan x="10" y="330">    ├── cfb@0.11.1 </tspan>
<tspan x="10" y="346">    ├─┬ codepage@1.3.8 </tspan>
<tspan x="10" y="362">    │ └── voc@0.5.0 </tspan>
<tspan x="10" y="378">    ├─┬ commander@2.9.0 </tspan>
<tspan x="10" y="394">    │ └── graceful-readlink@1.0.1 </tspan>
<tspan x="10" y="410">    ├── crc-32@1.0.1 </tspan>
<tspan x="10" y="426">    ├─┬ jszip@2.4.0 </tspan>
<tspan x="10" y="442">    │ └── pako@0.2.9 </tspan>
<tspan x="10" y="458">    └─┬ ssf@0.8.2 </tspan>
<tspan x="10" y="474">      ├── colors@0.6.2 </tspan>
<tspan x="10" y="490">      └── frac@0.3.1</tspan>
</text>
</svg>
